<?xml version="1.0" encoding="UTF-8"?>
<svg width="982px" height="784px" viewBox="0 0 982 784" version="1.1" xmlns="http://www.w3.org/2000/svg" xmlns:xlink="http://www.w3.org/1999/xlink">
    <title>Symbol</title>
    <g id="Logo" stroke="none" stroke-width="1" fill="none" fill-rule="evenodd">
        <g id="logo-symbol-color-primary" transform="translate(-21.000000, -240.000000)" fill="#0075E8" fill-rule="nonzero">
            <path d="M796.637681,240 C816.287812,240 832.217391,255.929579 832.217391,275.57971 C832.217391,295.229841 816.287812,311.15942 796.637681,311.15942 C791.145058,311.15942 785.943128,309.914811 781.298532,307.692232 L714.89513,374.095634 C717.11771,378.74023 718.362319,383.942159 718.362319,389.434783 C718.362319,404.926198 708.461855,418.105235 694.643085,422.989737 L694.643085,526.662437 C704.752165,530.23568 712.76432,538.247835 716.337563,548.356915 L820.010263,548.356915 C824.894765,534.538145 838.073802,524.637681 853.565217,524.637681 C859.502624,524.637681 865.10035,526.092024 870.021594,528.663909 L935.867331,462.819698 C933.295121,457.898212 931.84058,452.300129 931.84058,446.362319 C931.84058,426.712188 947.770159,410.782609 967.42029,410.782609 C987.070421,410.782609 1003,426.712188 1003,446.362319 C1003,466.01245 987.070421,481.942029 967.42029,481.942029 C961.48248,481.942029 955.884397,480.487488 950.96291,477.915277 L885.118176,543.760012 C887.690387,548.681498 889.144928,554.279582 889.144928,560.217391 C889.144928,566.155201 887.690387,571.753284 885.118176,576.674771 L950.963914,642.518981 C955.885157,639.947097 961.482884,638.492754 967.42029,638.492754 C987.070421,638.492754 1003,654.422332 1003,674.072464 C1003,693.722595 987.070421,709.652174 967.42029,709.652174 C947.770159,709.652174 931.84058,693.722595 931.84058,674.072464 C931.84058,668.134654 933.295121,662.536571 935.867331,657.615084 L870.022597,591.77035 C865.101111,594.342561 859.503027,595.797101 853.565217,595.797101 C838.073802,595.797101 824.894765,585.896637 820.010263,572.077868 L716.337563,572.077868 C711.453061,585.896637 698.274024,595.797101 682.782609,595.797101 C677.289611,595.797101 672.087347,594.552323 667.44251,592.329459 L544.112522,715.660851 C546.335101,720.305447 547.57971,725.507376 547.57971,731 C547.57971,739.010897 544.932212,746.403439 540.464448,752.35039 L540.463768,1024.05797 L483.536232,1024.05797 L483.535552,752.35039 C479.067788,746.403439 476.42029,739.010897 476.42029,731 C476.42029,725.507376 477.664899,720.305447 479.887478,715.660851 L356.55749,592.329459 C351.912653,594.552323 346.710389,595.797101 341.217391,595.797101 C325.725976,595.797101 312.546939,585.896637 307.662437,572.077868 L203.989737,572.077868 C199.105235,585.896637 185.926198,595.797101 170.434783,595.797101 C164.496973,595.797101 158.898889,594.342561 153.977403,591.77035 L88.1326686,657.615084 C90.7048794,662.536571 92.1594203,668.134654 92.1594203,674.072464 C92.1594203,693.722595 76.2298415,709.652174 56.5797101,709.652174 C36.9295788,709.652174 21,693.722595 21,674.072464 C21,654.422332 36.9295788,638.492754 56.5797101,638.492754 C62.5171164,638.492754 68.1148425,639.947097 73.0360864,642.518981 L138.881824,576.674771 C136.309613,571.753284 134.855072,566.155201 134.855072,560.217391 C134.855072,554.279582 136.309613,548.681498 138.881824,543.760012 L73.0370897,477.915277 C68.1156033,480.487488 62.5175198,481.942029 56.5797101,481.942029 C36.9295788,481.942029 21,466.01245 21,446.362319 C21,426.712188 36.9295788,410.782609 56.5797101,410.782609 C76.2298415,410.782609 92.1594203,426.712188 92.1594203,446.362319 C92.1594203,452.300129 90.7048794,457.898212 88.1326686,462.819698 L153.978406,528.663909 C158.89965,526.092024 164.497376,524.637681 170.434783,524.637681 C185.926198,524.637681 199.105235,534.538145 203.989737,548.356915 L307.662437,548.356915 C311.23568,538.247835 319.247835,530.23568 329.356915,526.662437 L329.356915,422.989737 C315.538145,418.105235 305.637681,404.926198 305.637681,389.434783 C305.637681,383.942159 306.88229,378.74023 309.10487,374.095634 L242.701468,307.692232 C238.056872,309.914811 232.854942,311.15942 227.362319,311.15942 C207.712188,311.15942 191.782609,295.229841 191.782609,275.57971 C191.782609,255.929579 207.712188,240 227.362319,240 C247.01245,240 262.942029,255.929579 262.942029,275.57971 C262.942029,281.072708 261.69725,286.274972 259.474386,290.919808 L325.877293,357.322715 C330.52213,355.099851 335.724394,353.855072 341.217391,353.855072 C346.710389,353.855072 351.912653,355.099851 356.55749,357.322715 L422.960397,290.919808 C420.737533,286.274972 419.492754,281.072708 419.492754,275.57971 C419.492754,255.929579 435.422332,240 455.072464,240 C474.722595,240 490.652174,255.929579 490.652174,275.57971 C490.652174,295.229841 474.722595,311.15942 455.072464,311.15942 C449.579466,311.15942 444.377202,309.914641 439.732366,307.691777 L373.329913,374.095634 C375.552492,378.74023 376.797101,383.942159 376.797101,389.434783 C376.797101,404.926198 366.896637,418.105235 353.077868,422.989737 L353.077868,526.662437 C366.896637,531.546939 376.797101,544.725976 376.797101,560.217391 C376.797101,565.710389 375.552323,570.912653 373.329459,575.55749 L496.660851,698.887478 C501.305447,696.664899 506.507376,695.42029 512,695.42029 C517.492624,695.42029 522.694553,696.664899 527.339149,698.887478 L650.670541,575.55749 C648.447677,570.912653 647.202899,565.710389 647.202899,560.217391 C647.202899,544.725976 657.103363,531.546939 670.922132,526.662437 L670.922132,422.989737 C657.103363,418.105235 647.202899,404.926198 647.202899,389.434783 C647.202899,383.942159 648.447508,378.74023 650.670087,374.095634 L584.267634,307.691777 C579.622798,309.914641 574.420534,311.15942 568.927536,311.15942 C549.277405,311.15942 533.347826,295.229841 533.347826,275.57971 C533.347826,255.929579 549.277405,240 568.927536,240 C588.577668,240 604.507246,255.929579 604.507246,275.57971 C604.507246,281.072708 603.262467,286.274972 601.039603,290.919808 L667.44251,357.322715 C672.087347,355.099851 677.289611,353.855072 682.782609,353.855072 C688.275606,353.855072 693.47787,355.099851 698.122707,357.322715 L764.525614,290.919808 C762.30275,286.274972 761.057971,281.072708 761.057971,275.57971 C761.057971,255.929579 776.98755,240 796.637681,240 Z M512,719.140097 C505.449956,719.140097 500.140097,724.449956 500.140097,731 C500.140097,737.550044 505.449956,742.859903 512,742.859903 C518.550044,742.859903 523.859903,737.550044 523.859903,731 C523.859903,724.449956 518.550044,719.140097 512,719.140097 Z M56.5797101,662.21256 C50.0296664,662.21256 44.7198068,667.52242 44.7198068,674.072464 C44.7198068,680.622508 50.0296664,685.932367 56.5797101,685.932367 C63.1297539,685.932367 68.4396135,680.622508 68.4396135,674.072464 C68.4396135,667.52242 63.1297539,662.21256 56.5797101,662.21256 Z M967.42029,662.21256 C960.870246,662.21256 955.560386,667.52242 955.560386,674.072464 C955.560386,680.622508 960.870246,685.932367 967.42029,685.932367 C973.970334,685.932367 979.280193,680.622508 979.280193,674.072464 C979.280193,667.52242 973.970334,662.21256 967.42029,662.21256 Z M682.782609,548.357488 C676.232565,548.357488 670.922705,553.667348 670.922705,560.217391 C670.922705,566.767435 676.232565,572.077295 682.782609,572.077295 C689.332652,572.077295 694.642512,566.767435 694.642512,560.217391 C694.642512,553.667348 689.332652,548.357488 682.782609,548.357488 Z M853.565217,548.357488 C847.015174,548.357488 841.705314,553.667348 841.705314,560.217391 C841.705314,566.767435 847.015174,572.077295 853.565217,572.077295 C860.115261,572.077295 865.425121,566.767435 865.425121,560.217391 C865.425121,553.667348 860.115261,548.357488 853.565217,548.357488 Z M170.434783,548.357488 C163.884739,548.357488 158.574879,553.667348 158.574879,560.217391 C158.574879,566.767435 163.884739,572.077295 170.434783,572.077295 C176.984826,572.077295 182.294686,566.767435 182.294686,560.217391 C182.294686,553.667348 176.984826,548.357488 170.434783,548.357488 Z M341.217391,548.357488 C334.667348,548.357488 329.357488,553.667348 329.357488,560.217391 C329.357488,566.767435 334.667348,572.077295 341.217391,572.077295 C347.767435,572.077295 353.077295,566.767435 353.077295,560.217391 C353.077295,553.667348 347.767435,548.357488 341.217391,548.357488 Z M967.42029,434.502415 C960.870246,434.502415 955.560386,439.812275 955.560386,446.362319 C955.560386,452.912363 960.870246,458.222222 967.42029,458.222222 C973.970334,458.222222 979.280193,452.912363 979.280193,446.362319 C979.280193,439.812275 973.970334,434.502415 967.42029,434.502415 Z M56.5797101,434.502415 C50.0296664,434.502415 44.7198068,439.812275 44.7198068,446.362319 C44.7198068,452.912363 50.0296664,458.222222 56.5797101,458.222222 C63.1297539,458.222222 68.4396135,452.912363 68.4396135,446.362319 C68.4396135,439.812275 63.1297539,434.502415 56.5797101,434.502415 Z M341.217391,377.574879 C334.667348,377.574879 329.357488,382.884739 329.357488,389.434783 C329.357488,395.984826 334.667348,401.294686 341.217391,401.294686 C347.767435,401.294686 353.077295,395.984826 353.077295,389.434783 C353.077295,382.884739 347.767435,377.574879 341.217391,377.574879 Z M682.782609,377.574879 C676.232565,377.574879 670.922705,382.884739 670.922705,389.434783 C670.922705,395.984826 676.232565,401.294686 682.782609,401.294686 C689.332652,401.294686 694.642512,395.984826 694.642512,389.434783 C694.642512,382.884739 689.332652,377.574879 682.782609,377.574879 Z M568.927536,263.719807 C562.377492,263.719807 557.067633,269.029666 557.067633,275.57971 C557.067633,282.129754 562.377492,287.439614 568.927536,287.439614 C575.47758,287.439614 580.78744,282.129754 580.78744,275.57971 C580.78744,269.029666 575.47758,263.719807 568.927536,263.719807 Z M796.637681,263.719807 C790.087637,263.719807 784.777778,269.029666 784.777778,275.57971 C784.777778,282.129754 790.087637,287.439614 796.637681,287.439614 C803.187725,287.439614 808.497585,282.129754 808.497585,275.57971 C808.497585,269.029666 803.187725,263.719807 796.637681,263.719807 Z M227.362319,263.719807 C220.812275,263.719807 215.502415,269.029666 215.502415,275.57971 C215.502415,282.129754 220.812275,287.439614 227.362319,287.439614 C233.912363,287.439614 239.222222,282.129754 239.222222,275.57971 C239.222222,269.029666 233.912363,263.719807 227.362319,263.719807 Z M455.072464,263.719807 C448.52242,263.719807 443.21256,269.029666 443.21256,275.57971 C443.21256,282.129754 448.52242,287.439614 455.072464,287.439614 C461.622508,287.439614 466.932367,282.129754 466.932367,275.57971 C466.932367,269.029666 461.622508,263.719807 455.072464,263.719807 Z" id="Symbol"></path>
        </g>
    </g>
</svg>